<svg width="197" height="276" viewBox="0 0 197 276" fill="none" xmlns="http://www.w3.org/2000/svg">
<g id="mole">
<g id="Page 1">
<g id="mole_2">
<path id="Shape" fill-rule="evenodd" clip-rule="evenodd" d="M98.0919 2.92678C97.8474 2.92678 97.5175 2.96452 97.2524 2.96869V3.0106C82.6265 3.18098 47.0702 6.27626 33.9909 38.1465C27.472 29.4819 33.9855 38.1492 12.9597 18.2068C12.9597 18.2068 -13.4204 44.0543 22.5727 62.4101C35.0747 178.403 9.60447 222.976 83.6094 221.382C87.8256 221.292 92.4542 221.353 97.2524 221.466H97.3782L99.5611 221.508V221.424C104.364 221.311 108.984 221.249 113.204 221.34C187.209 222.934 161.739 178.361 174.241 62.368C210.234 44.0122 183.854 18.1647 183.854 18.1647C162.828 38.1074 169.341 29.4398 162.823 38.1045C149.302 5.15834 111.695 2.92657 98.0919 2.92657L98.0919 2.92678Z" fill="#333333" stroke="black" stroke-width="5.81003"/>
<path id="Shape_2" fill-rule="evenodd" clip-rule="evenodd" d="M169.767 196.171C169.767 238.7 138.569 273.176 100.085 273.176C61.6005 273.176 30.4027 238.7 30.4027 196.171C30.4027 153.643 61.6005 119.167 100.085 119.167C138.569 119.167 169.767 153.643 169.767 196.171Z" fill="#93939F" stroke="black" stroke-width="2.70513"/>
<path id="Shape_3" fill-rule="evenodd" clip-rule="evenodd" d="M99.0442 120.061C136.472 121.391 166.462 155.323 166.462 197.007C166.462 236.349 139.765 268.765 105.299 273.408C129.347 266.694 147.529 235.289 147.529 197.553C147.529 156.599 126.126 123.095 99.0442 120.522V120.061Z" fill="#7F7F8D"/>
<path id="Shape_4" fill-rule="evenodd" clip-rule="evenodd" d="M98.8633 118.921C61.4356 120.252 31.4459 154.183 31.4459 195.867C31.4459 235.209 58.1425 267.626 92.6085 272.268C68.5605 265.554 50.3782 234.15 50.3782 196.413C50.3782 155.46 71.7819 121.955 98.8633 119.383V118.921Z" fill="#C1C1C8"/>
<path id="Eyes" fill-rule="evenodd" clip-rule="evenodd" d="M72.836 31.465C55.5609 31.465 41.5316 47.6847 41.5316 67.6731C41.5316 87.6615 55.5609 103.879 72.836 103.879C82.9881 103.879 91.9955 98.2726 97.7146 89.5963C103.432 98.2784 112.46 103.879 122.618 103.879C139.888 103.879 153.919 87.6577 153.919 67.6731C153.919 47.6886 139.888 31.465 122.618 31.465C112.462 31.465 103.432 37.0698 97.7146 45.75C91.9955 37.0756 82.9861 31.465 72.836 31.465Z" fill="white" stroke="black" stroke-width="5.48447"/>
<path id="Shape_5" opacity="0.3374" fill-rule="evenodd" clip-rule="evenodd" d="M138.19 34.9647C138.572 37.2624 138.753 39.649 138.753 42.0751C138.753 62.7155 124.289 79.448 106.453 79.448C95.9617 79.448 86.604 73.674 80.6994 64.707C74.7927 73.668 65.5178 79.448 55.0326 79.448C49.8311 79.448 44.9073 78.0317 40.5516 75.5026C43.4247 92.7495 56.546 105.809 72.2883 105.809C82.7735 105.809 92.0918 99.9852 97.9984 91.0241C103.903 99.9912 113.217 105.809 123.709 105.809C141.545 105.809 156.052 89.0327 156.052 68.3922C156.052 53.7663 148.773 41.1103 138.19 34.9647Z" fill="#A5A5A5"/>
<g id="Group">
<path id="Shape_6" fill-rule="evenodd" clip-rule="evenodd" d="M95.7358 70.1231C95.7358 75.1275 91.6766 79.1848 86.6722 79.1848C81.6678 79.1848 77.6105 75.1275 77.6105 70.1231C77.6105 65.1168 81.6697 61.0595 86.6722 61.0595C91.6785 61.0614 95.7358 65.1168 95.7358 70.1231Z" fill="black" stroke="black" stroke-width="3.47634"/>
<path id="Shape_7" fill-rule="evenodd" clip-rule="evenodd" d="M85.7541 66.9489C85.7541 68.2465 84.7006 69.2981 83.403 69.2981C82.1054 69.2981 81.0538 68.2465 81.0538 66.9489C81.0538 65.6513 82.1054 64.5978 83.403 64.5978C84.7006 64.5978 85.7541 65.6513 85.7541 66.9489Z" fill="white"/>
</g>
<g id="Group_2">
<path id="Shape_8" fill-rule="evenodd" clip-rule="evenodd" d="M118.687 70.1231C118.687 75.1275 114.63 79.1848 109.626 79.1848C104.619 79.1848 100.562 75.1275 100.562 70.1231C100.562 65.1168 104.619 61.0595 109.626 61.0595C114.632 61.0595 118.687 65.1168 118.687 70.1231Z" fill="black" stroke="black" stroke-width="3.47634"/>
<path id="Shape_9" fill-rule="evenodd" clip-rule="evenodd" d="M108.704 66.9489C108.704 68.2465 107.652 69.2981 106.355 69.2981C105.057 69.2981 104.005 68.2465 104.005 66.9489C104.005 65.6513 105.057 64.5978 106.355 64.5978C107.652 64.5978 108.704 65.6513 108.704 66.9489Z" fill="white"/>
</g>
<path id="Shape_10" fill-rule="evenodd" clip-rule="evenodd" d="M10.5865 27.6104C10.5865 27.6104 -3.05862 43.4257 20.6608 58.4212C24.4688 54.7318 25.0133 54.0792 29.4926 50.5274V47.6728C24.0662 44.7132 26.571 40.8422 17.7214 29.8409L10.5865 27.6104Z" fill="url(#paint0_linear)" stroke="black" stroke-width="1.34331"/>
<path id="Shape_11" fill-rule="evenodd" clip-rule="evenodd" d="M187.588 28.3138C187.588 28.3138 201.233 44.1291 177.513 59.1246C173.705 55.4352 173.161 54.7826 168.682 51.2308V48.3762C174.108 45.4166 171.603 41.5456 180.453 30.5442L187.588 28.3138Z" fill="url(#paint1_linear)" stroke="black" stroke-width="1.34331"/>
<path id="Shape_12" fill-rule="evenodd" clip-rule="evenodd" d="M90.0311 122.314C127.459 123.645 157.448 157.576 157.448 199.26C157.448 238.602 130.752 271.018 96.2859 275.661C120.334 268.947 138.516 237.543 138.516 199.806C138.516 158.853 117.113 125.348 90.0311 122.776V122.314Z" fill="#7F7F8D"/>
<path id="Shape_13" fill-rule="evenodd" clip-rule="evenodd" d="M98.3762 93.0854C86.8308 93.0854 76.8736 98.7764 72.3076 106.975C61.776 110.228 55.0125 115.33 55.0125 121.055C55.0125 122.631 55.5585 124.175 56.5237 125.63C55.7986 127.319 55.4322 129.078 55.4322 130.883C55.4322 143.926 75.4312 154.493 100.097 154.493C124.763 154.493 144.762 143.926 144.762 130.883C144.762 128.807 144.244 126.79 143.293 124.872C143.963 123.646 144.343 122.361 144.343 121.055C144.343 114.787 136.222 109.277 123.941 106.109C119.174 98.3747 109.514 93.0854 98.3762 93.0854Z" fill="url(#paint2_linear)" stroke="black" stroke-width="2.68662"/>
<path id="Shape_14" fill-rule="evenodd" clip-rule="evenodd" d="M114.727 100.97C114.727 109.681 107.665 116.743 98.9538 116.743C90.2427 116.743 83.1809 109.681 83.1809 100.97C83.1809 92.2588 90.2427 85.197 98.9538 85.197C107.665 85.197 114.727 92.2588 114.727 100.97Z" fill="black"/>
<path id="Shape_15" fill-rule="evenodd" clip-rule="evenodd" d="M79.808 134.967H97.6861V162.209H79.808V134.967Z" fill="url(#paint3_linear)" stroke="black" stroke-width="3.04519"/>
<path id="Shape_16" fill-rule="evenodd" clip-rule="evenodd" d="M97.9047 134.461H115.783V161.704H97.9047V134.461Z" fill="url(#paint4_linear)" stroke="black" stroke-width="3.04519"/>
<path id="Shape_17" d="M62.9014 125.756C88.8742 140.253 113.163 137.912 136.133 122.376" stroke="black" stroke-width="5.37324"/>
</g>
</g>
</g>
<defs>
<linearGradient id="paint0_linear" x1="6.01663" y1="617.253" x2="30.1612" y2="617.253" gradientUnits="userSpaceOnUse">
<stop stop-color="#F1AAC2"/>
<stop offset="1" stop-color="#E5638F"/>
</linearGradient>
<linearGradient id="paint1_linear" x1="192.158" y1="617.253" x2="168.013" y2="617.253" gradientUnits="userSpaceOnUse">
<stop stop-color="#F1AAC2"/>
<stop offset="1" stop-color="#E5638F"/>
</linearGradient>
<linearGradient id="paint2_linear" x1="79.5682" y1="104.622" x2="113.917" y2="161.799" gradientUnits="userSpaceOnUse">
<stop stop-color="#FFCEAE"/>
<stop offset="1" stop-color="#FFB280"/>
</linearGradient>
<linearGradient id="paint3_linear" x1="78.2685" y1="617.253" x2="99.2158" y2="617.253" gradientUnits="userSpaceOnUse">
<stop stop-color="#8A8A8A"/>
<stop offset="0.2857" stop-color="#F1F1F1"/>
<stop offset="1" stop-color="white"/>
</linearGradient>
<linearGradient id="paint4_linear" x1="96.3612" y1="617.253" x2="117.308" y2="617.253" gradientUnits="userSpaceOnUse">
<stop stop-color="#8A8A8A"/>
<stop offset="0.2857" stop-color="#F1F1F1"/>
<stop offset="1" stop-color="white"/>
</linearGradient>
</defs>
</svg>
